<svg xmlns="http://www.w3.org/2000/svg" width="256" height="256" viewBox="0 0 256 256" role="img" aria-labelledby="title desc">
  <title id="title">Web Engineering Header Icon</title>
  <desc id="desc">A browser window with code brackets and a gear to represent web engineering.</desc>
  <defs>
    <linearGradient id="panel" x1="0" y1="0" x2="1" y2="1">
      <stop offset="0%" stop-color="#e3f2fd"/>
      <stop offset="100%" stop-color="#bbdefb"/>
    </linearGradient>
  </defs>
  <rect x="24" y="36" width="208" height="156" rx="14" fill="url(#panel)" stroke="#1565c0" stroke-width="8"/>
  <rect x="24" y="36" width="208" height="30" rx="14" fill="#1565c0"/>
  <circle cx="44" cy="51" r="6" fill="#ef5350"/>
  <circle cx="63" cy="51" r="6" fill="#ffca28"/>
  <circle cx="82" cy="51" r="6" fill="#66bb6a"/>
  <path d="M92 124l-24-20 24-20" fill="none" stroke="#0d47a1" stroke-width="10" stroke-linecap="round" stroke-linejoin="round"/>
  <path d="M164 84l24 20-24 20" fill="none" stroke="#0d47a1" stroke-width="10" stroke-linecap="round" stroke-linejoin="round"/>
  <path d="M148 80l-16 48" fill="none" stroke="#1976d2" stroke-width="8" stroke-linecap="round"/>
  <circle cx="190" cy="188" r="28" fill="#42a5f5" stroke="#0d47a1" stroke-width="8"/>
  <circle cx="190" cy="188" r="10" fill="#e3f2fd"/>
  <g stroke="#0d47a1" stroke-width="6" stroke-linecap="round">
    <line x1="190" y1="145" x2="190" y2="156"/>
    <line x1="190" y1="220" x2="190" y2="231"/>
    <line x1="147" y1="188" x2="158" y2="188"/>
    <line x1="222" y1="188" x2="233" y2="188"/>
    <line x1="160" y1="158" x2="168" y2="166"/>
    <line x1="212" y1="210" x2="220" y2="218"/>
    <line x1="160" y1="218" x2="168" y2="210"/>
    <line x1="212" y1="166" x2="220" y2="158"/>
  </g>
</svg>
